<svg width="59" height="58" viewBox="0 0 59 58" xmlns="http://www.w3.org/2000/svg"><title>bathtub-icon</title><path d="M54.868 30.243H4.742V4.033c0-1.48 1.22-2.69 2.71-2.69 2.03 0 3.86.808 5.283 2.152l.542.537-1.423 1.412V6.72c0 1.68.678 3.294 1.897 4.504l.475.47 7.722-7.662-.474-.47a6.437 6.437 0 0 0-4.538-1.882h-1.287l-1.423 1.412-.542-.538A8.807 8.807 0 0 0 7.45 0C5.217 0 3.388 1.815 3.388 4.032v26.28C1.49 30.646 0 32.26 0 34.275a3.963 3.963 0 0 0 3.59 3.965l4.132 12.502c.542 1.613 2.1 2.688 3.793 2.688h1.762l-1.423 4.167L13.14 58l1.56-4.57h29.533L45.79 58l1.288-.403-1.422-4.167h1.76c1.762 0 3.252-1.075 3.794-2.688l4.2-12.434c2.032-.27 3.59-1.95 3.59-3.965-.068-2.285-1.897-4.1-4.132-4.1zm-38.68-27.22h.747c1.15 0 2.235.337 3.116 1.01l-5.825 5.712c-.677-.874-1.016-1.95-1.016-3.09v-.74l2.98-2.89zm33.735 47.248a2.622 2.622 0 0 1-2.506 1.816H11.515c-1.15 0-2.167-.74-2.506-1.815L5.012 38.31H53.92l-3.997 11.96zm4.945-13.306H4.064c-1.49 0-2.71-1.21-2.71-2.688 0-1.48 1.22-2.69 2.71-2.69h50.804c1.49 0 2.71 1.21 2.71 2.69 0 1.478-1.22 2.688-2.71 2.688zm-32.755-10.77l-5.07-11.83 1.236-.53 5.068 11.83-1.235.53zm-.552-15.8l8.455 15.22-1.175.652-8.454-15.218 1.175-.653zM25 6.97L36.854 25.6l-1.134.722-11.856-18.63L25 6.97z" fill="#00C4B3" fill-rule="evenodd"/></svg>