<svg width="54" height="57" viewBox="0 0 54 57" xmlns="http://www.w3.org/2000/svg"><title>bed-icon</title><g fill="#00C4B3" fill-rule="evenodd"><path d="M37.205 13.51a1.45 1.45 0 0 1-1.103.51H17.847c-.423 0-.824-.185-1.103-.508a.268.268 0 0 0-.38-.028.268.268 0 0 0-.028.38c.38.442.93.696 1.51.696H36.1c.58 0 1.132-.254 1.514-.698a.269.269 0 0 0-.03-.38.268.268 0 0 0-.38.03zM12.79 6.264a.265.265 0 0 0 .19-.08l.84-.84a1.208 1.208 0 0 0 1.183.091l.248.248a.27.27 0 1 0 .382-.38l-.2-.2a1.204 1.204 0 0 0 .07-1.44l.72-.722a.265.265 0 0 0 0-.38.267.267 0 0 0-.38 0l-.733.732a1.206 1.206 0 0 0-1.381.105l-.428-.427a.267.267 0 0 0-.38 0 .267.267 0 0 0 0 .38l.474.476a1.188 1.188 0 0 0 .057 1.121l-.855.854a.271.271 0 0 0 0 .382.271.271 0 0 0 .19.078zm1.705-2.6a.674.674 0 0 1 0 1.345.673.673 0 0 1 0-1.346zm6.67 2.6a.26.26 0 0 0 .19-.08l.842-.84a1.202 1.202 0 0 0 1.184.091l.246.248a.27.27 0 1 0 .382-.38l-.2-.2a1.204 1.204 0 0 0 .069-1.44l.722-.722a.27.27 0 1 0-.382-.38l-.734.732a1.2 1.2 0 0 0-1.38.105l-.426-.427a.267.267 0 0 0-.38 0 .265.265 0 0 0 0 .38l.473.476a1.2 1.2 0 0 0 .058 1.121l-.854.854a.27.27 0 0 0 .19.46zm1.706-2.6a.673.673 0 1 1-.671.672c0-.372.3-.673.673-.673zm-5.894 6.366c.07 0 .138-.027.19-.08l.842-.842a1.195 1.195 0 0 0 1.181.093l.248.25a.269.269 0 0 0 .382-.002.269.269 0 0 0 0-.38l-.2-.2a1.201 1.201 0 0 0 .069-1.439l.72-.723a.267.267 0 0 0 0-.38.267.267 0 0 0-.38 0l-.734.733a1.2 1.2 0 0 0-1.381.104l-.426-.426a.271.271 0 0 0-.382 0 .267.267 0 0 0 0 .38l.475.477a1.196 1.196 0 0 0 .057 1.122l-.855.853a.269.269 0 0 0 0 .38c.054.053.123.08.192.08zm1.706-2.6a.672.672 0 1 1 0 1.346.672.672 0 0 1 0-1.347zm6.67 2.6c.07 0 .138-.027.19-.08l.842-.842a1.203 1.203 0 0 0 1.181.093l.247.25a.269.269 0 0 0 .382-.002.267.267 0 0 0 0-.38l-.2-.2a1.21 1.21 0 0 0 .071-1.439l.72-.723a.265.265 0 0 0 0-.38.267.267 0 0 0-.38 0l-.734.733a1.2 1.2 0 0 0-1.38.104l-.427-.426a.269.269 0 1 0-.38.38l.474.477a1.182 1.182 0 0 0 .056 1.122l-.855.853a.27.27 0 0 0 .193.46zm1.705-2.6a.672.672 0 1 1-.671.672c0-.372.3-.673.672-.673zm6.672 2.6a.27.27 0 0 0 .19-.08l.842-.842a1.197 1.197 0 0 0 1.181.093l.248.25c.053.05.122.078.192.078s.138-.027.19-.08a.267.267 0 0 0 0-.38l-.2-.2a1.201 1.201 0 0 0 .07-1.439l.72-.723a.265.265 0 0 0 0-.38.267.267 0 0 0-.38 0l-.733.733a1.2 1.2 0 0 0-1.382.104l-.426-.426a.269.269 0 0 0-.38 0 .265.265 0 0 0 0 .38l.473.477a1.192 1.192 0 0 0 .057 1.122l-.854.853a.267.267 0 0 0 0 .38.27.27 0 0 0 .19.08zm1.705-2.6a.672.672 0 1 1 0 1.346.672.672 0 0 1 0-1.347zM29.54 6.264c.07 0 .14-.026.192-.08l.84-.84a1.208 1.208 0 0 0 1.183.091l.248.248a.264.264 0 0 0 .38 0 .265.265 0 0 0 0-.38l-.198-.2a1.21 1.21 0 0 0 .068-1.44l.72-.722a.265.265 0 0 0 0-.38.267.267 0 0 0-.38 0l-.733.732a1.198 1.198 0 0 0-1.38.105l-.426-.427a.267.267 0 0 0-.38 0 .267.267 0 0 0 0 .38l.474.476a1.188 1.188 0 0 0 .057 1.121l-.855.854a.271.271 0 0 0 0 .382.271.271 0 0 0 .19.078zm1.707-2.6a.674.674 0 1 1-.001-.001zm6.67 2.6c.07 0 .14-.026.19-.08l.843-.84a1.196 1.196 0 0 0 1.181.091l.25.248a.264.264 0 0 0 .38 0 .267.267 0 0 0 0-.38l-.198-.2a1.214 1.214 0 0 0 .068-1.44l.72-.722a.265.265 0 0 0 0-.38.267.267 0 0 0-.38 0l-.733.732a1.2 1.2 0 0 0-1.38.105l-.427-.427a.267.267 0 0 0-.38 0 .267.267 0 0 0 0 .38l.474.476a1.188 1.188 0 0 0 .057 1.121l-.853.854a.27.27 0 0 0 .19.46zm1.706-2.6a.672.672 0 1 1 0 1.347.672.672 0 0 1 0-1.348z"/><path d="M53.868 42.66l.004-.002-.03-.086a2.622 2.622 0 0 0-.164-.536l-3.838-12.63.015-.015-.028-.025-1.792-5.943a3.361 3.361 0 0 0-1.13-1.64V5.967c0-3.27-2.688-5.967-5.96-5.967H13.004C9.733 0 7.11 2.696 7.11 5.967v15.815c-.54.43-.97 1.003-1.162 1.64l-1.816 5.943-.032.026.012.017L.274 42.035c-.072.17-.127.35-.163.536l-.025.087.03.004c-.023.14-.015.28-.015.424V53.87c0 1.486 1.17 2.642 2.657 2.642h48.435c1.487 0 2.723-1.156 2.723-2.643V43.083c0-.144-.025-.285-.047-.423zm-1.772-2.142a2.666 2.666 0 0 0-.903-.183H2.757c-.317 0-.62.082-.903.183L5.07 29.94l1.345-1.24c.767-.722 2.305-1.306 3.358-1.306h34.403c1.053 0 2.59.59 3.358 1.313l1.344 1.242 3.218 10.568zM8.19 5.968c0-2.677 2.137-4.89 4.813-4.89h27.944c2.676 0 4.88 2.213 4.88 4.89V21.17c-.323-.125-.74-.248-1.105-.248h-4.61v-7.28c0-1.486-1.167-2.642-2.654-2.642H16.492c-1.487 0-2.696 1.156-2.696 2.643v7.28H9.228c-.364 0-.716.123-1.04.25V5.966zM39.032 20.92H14.875v-7.28c0-.89.725-1.563 1.617-1.563h20.966c.892 0 1.575.672 1.575 1.563v7.28zM6.96 23.71C7.237 22.796 8.275 22 9.228 22H44.72c.954 0 1.993.797 2.27 1.71l1.26 4.176c-.975-.9-2.755-1.572-4.074-1.572H9.773c-1.318 0-3.1.672-4.072 1.572l1.26-4.177zm45.877 30.16c0 .89-.753 1.563-1.644 1.563H2.757c-.892 0-1.578-.673-1.578-1.564V43.083c0-.092-.01-.182.004-.27l.11-.42c.254-.562.808-.98 1.463-.98h48.435c.656 0 1.22.418 1.474.98l.133.407c.014.09.036.192.036.284V53.87z"/></g></svg>