<svg width="48" height="62" viewBox="0 0 48 62" xmlns="http://www.w3.org/2000/svg"><title>oven-icon</title><g fill="#00C4B3" fill-rule="evenodd"><path d="M7 61v-1 1zm41-2H0V11h48v48zM1.252 57.756h45.496V12.244H1.252v45.512zM2.254 11H1V4.098c0-.055-.04-1.835 1.09-3.04C2.75.357 3.647 0 4.76 0h19.323v1.294H4.76c-.76 0-1.356.224-1.77.665-.754.802-.737 2.105-.736 2.118V11z"/><path d="M47.082 11H45.83V4.098c0-.03.02-1.34-.742-2.145-.414-.437-1.008-.66-1.766-.66H24V0h19.322c1.113 0 2.012.357 2.67 1.06 1.133 1.204 1.092 2.983 1.09 3.06V11z"/><path d="M7.5 10C5.57 10 4 8.43 4 6.5S5.57 3 7.5 3 11 4.57 11 6.5 9.43 10 7.5 10zm0-5.774c-1.254 0-2.274 1.02-2.274 2.274S6.246 8.774 7.5 8.774 9.774 7.754 9.774 6.5 8.754 4.226 7.5 4.226zm8 5.774C13.57 10 12 8.43 12 6.5S13.57 3 15.5 3 19 4.57 19 6.5 17.43 10 15.5 10zm0-5.774c-1.254 0-2.274 1.02-2.274 2.274s1.02 2.274 2.274 2.274 2.274-1.02 2.274-2.274-1.02-2.274-2.274-2.274zM31.5 10C29.57 10 28 8.43 28 6.5S29.57 3 31.5 3 35 4.57 35 6.5 33.43 10 31.5 10zm0-5.774c-1.254 0-2.274 1.02-2.274 2.274s1.02 2.274 2.274 2.274 2.274-1.02 2.274-2.274-1.02-2.274-2.274-2.274zm8 5.774C37.57 10 36 8.43 36 6.5S37.57 3 39.5 3 43 4.57 43 6.5 41.43 10 39.5 10zm0-5.774c-1.254 0-2.274 1.02-2.274 2.274s1.02 2.274 2.274 2.274 2.274-1.02 2.274-2.274-1.02-2.274-2.274-2.274zM42.143 52H5.857C4.833 52 4 51.15 4 50.107V22.893C4 21.85 4.833 21 5.857 21h36.286c1.024 0 1.857.85 1.857 1.893v27.214C44 51.15 43.167 52 42.143 52zM5.857 22.262c-.34 0-.62.283-.62.63v27.215c0 .348.28.63.62.63h36.286c.342 0 .62-.282.62-.63V22.893a.625.625 0 0 0-.62-.63H5.857zM4.25 15.695h39.524v2.388H4.25zM3.755 59.04v.858c0 .632.58 1.143 1.294 1.143h6.578c.714 0 1.294-.51 1.294-1.142v-.857H3.755zM34.97 59.04v.858c0 .632.58 1.143 1.294 1.143h6.578c.714 0 1.294-.51 1.294-1.142v-.857H34.97z"/></g></svg>