<svg width="48" height="61" viewBox="0 0 48 61" xmlns="http://www.w3.org/2000/svg"><title>washer-icon</title><g fill="#00C4B3" fill-rule="evenodd"><path d="M15.02 14.65h31.31V7.19H15.02v7.46zM4.274 7.19v.874c0 .067 0 .067.066.067l.066.068c.2.068 1.67.068 3.07.068 1.47 0 2.872 0 3.072-.068.067 0 .067 0 .067-.067l.067-.066V7.19h-6.41zm7.477 0h1.67v7.527H1.6V7.19h1.67v.874c0 .27.133.538.266.74.2.2.4.335.668.402.267.068 1.802.068 3.27.068 1.47 0 3.005 0 3.272-.068.267-.067.468-.2.668-.403.2-.2.267-.47.267-.74V7.19h.067zM3.004 58.867H6.81v-.94H3.003v.94zm4.673 1.613H2.203c-.467 0-.8-.336-.8-.806v-1.748H.8c-.466 0-.8-.336-.8-.806V6.384a.77.77 0 0 1 .2-.538L4.14.336C4.272.134 4.54 0 4.806 0H43.26c.267 0 .534.134.668.403L47.8 5.846a.77.77 0 0 1 .2.538V57.12c0 .47-.334.806-.8.806h-.602v1.748c0 .47-.334.806-.8.806h-5.475c-.468 0-.8-.336-.8-.806v-1.748H8.477v1.748c0 .47-.4.806-.8.806zm33.38-1.613h3.805v-.94h-3.805v.94zM14.22 16.33H1.602v39.984h44.796V16.33H14.22zM42.793 1.613H5.14L2.337 5.51H45.53l-2.737-3.897z"/><path d="M30.494 28.892c.92.925 1.71 2.047 2.17 3.302h3.224a.59.59 0 0 1 .592.595v6.47c0 .33-.263.595-.592.595H32.73c-.526 1.255-1.25 2.378-2.17 3.303-3.88 3.896-10.328 3.896-14.21 0-3.88-3.897-3.88-10.37 0-14.266 3.816-3.963 10.263-3.963 14.144 0zm2.63 4.49a10.25 10.25 0 0 1 0 5.285h2.172v-5.284h-2.17zm-3.485-3.63c-3.422-3.436-9.08-3.436-12.5 0-3.42 3.433-3.42 9.113 0 12.547 3.42 3.433 9.078 3.433 12.5 0 3.42-3.435 3.42-9.115 0-12.55z"/><path d="M23.52 20.16c8.785 0 15.84 7.106 15.84 15.807 0 8.7-7.055 15.873-15.84 15.873S7.68 44.8 7.68 36.033 14.735 20.16 23.52 20.16zm0 1.66c-7.853 0-14.243 6.376-14.243 14.213 0 7.837 6.39 14.213 14.243 14.213 7.853 0 14.243-6.376 14.243-14.213 0-7.837-6.39-14.213-14.243-14.213zM26.4 8.64a2.4 2.4 0 1 1-2.4 2.4c0-1.263 1.074-2.4 2.4-2.4zm0 1.2c-.695 0-1.263.568-1.263 1.263s.568 1.263 1.263 1.263 1.263-.568 1.263-1.263c0-.758-.568-1.263-1.263-1.263zm6.72-1.2a2.4 2.4 0 1 1-2.4 2.4c0-1.263 1.074-2.4 2.4-2.4zm0 1.2c-.695 0-1.263.568-1.263 1.263s.568 1.263 1.263 1.263 1.263-.568 1.263-1.263c0-.758-.568-1.263-1.263-1.263zM40.8 8.64a2.4 2.4 0 1 1-2.4 2.4c0-1.263 1.074-2.4 2.4-2.4zm0 1.2c-.695 0-1.263.568-1.263 1.263s.568 1.263 1.263 1.263 1.263-.568 1.263-1.263C42 10.345 41.495 9.84 40.8 9.84z"/></g></svg>